<?xml version="1.0" encoding="UTF-8" standalone="no"?>
<!-- Created with Inkscape (http://www.inkscape.org/) -->

<svg
   xmlns:dc="http://purl.org/dc/elements/1.1/"
   xmlns:cc="http://creativecommons.org/ns#"
   xmlns:rdf="http://www.w3.org/1999/02/22-rdf-syntax-ns#"
   xmlns:svg="http://www.w3.org/2000/svg"
   xmlns="http://www.w3.org/2000/svg"
   xmlns:sodipodi="http://sodipodi.sourceforge.net/DTD/sodipodi-0.dtd"
   xmlns:inkscape="http://www.inkscape.org/namespaces/inkscape"
   width="20"
   height="20"
   id="svg2"
   version="1.1"
   inkscape:version="0.47 r22583"
   sodipodi:docname="server.svg"
   style="display:inline">
  <defs
     id="defs4">
    <inkscape:perspective
       sodipodi:type="inkscape:persp3d"
       inkscape:vp_x="0 : 526.18109 : 1"
       inkscape:vp_y="0 : 1000 : 0"
       inkscape:vp_z="744.09448 : 526.18109 : 1"
       inkscape:persp3d-origin="372.04724 : 350.78739 : 1"
       id="perspective10" />
    <inkscape:perspective
       id="perspective2844"
       inkscape:persp3d-origin="0.5 : 0.33333333 : 1"
       inkscape:vp_z="1 : 0.5 : 1"
       inkscape:vp_y="0 : 1000 : 0"
       inkscape:vp_x="0 : 0.5 : 1"
       sodipodi:type="inkscape:persp3d" />
    <inkscape:perspective
       id="perspective2871"
       inkscape:persp3d-origin="0.5 : 0.33333333 : 1"
       inkscape:vp_z="1 : 0.5 : 1"
       inkscape:vp_y="0 : 1000 : 0"
       inkscape:vp_x="0 : 0.5 : 1"
       sodipodi:type="inkscape:persp3d" />
    <inkscape:perspective
       id="perspective3006"
       inkscape:persp3d-origin="0.5 : 0.33333333 : 1"
       inkscape:vp_z="1 : 0.5 : 1"
       inkscape:vp_y="0 : 1000 : 0"
       inkscape:vp_x="0 : 0.5 : 1"
       sodipodi:type="inkscape:persp3d" />
  </defs>
  <sodipodi:namedview
     id="base"
     pagecolor="#ffffff"
     bordercolor="#666666"
     borderopacity="1.0"
     inkscape:pageopacity="0.0"
     inkscape:pageshadow="2"
     inkscape:zoom="24.372722"
     inkscape:cx="6.3868657"
     inkscape:cy="9.827135"
     inkscape:document-units="px"
     inkscape:current-layer="g3164"
     showgrid="false"
     inkscape:window-width="1020"
     inkscape:window-height="734"
     inkscape:window-x="52"
     inkscape:window-y="0"
     inkscape:window-maximized="0"
     inkscape:object-paths="false"
     inkscape:snap-intersection-paths="false"
     inkscape:snap-nodes="true" />
  <metadata
     id="metadata7">
    <rdf:RDF>
      <cc:Work
         rdf:about="">
        <dc:format>image/svg+xml</dc:format>
        <dc:type
           rdf:resource="http://purl.org/dc/dcmitype/StillImage" />
        <dc:title></dc:title>
      </cc:Work>
    </rdf:RDF>
  </metadata>
  <g
     inkscape:label="Server"
     inkscape:groupmode="layer"
     id="layer1"
     transform="translate(0,-1032.3622)"
     style="display:none">
    <rect
       style="fill:#000000"
       id="rect2821"
       width="5.5411453"
       height="2.3210001"
       x="7.2294273"
       y="1040.5677"
       ry="0.3192879" />
    <rect
       style="fill:#000000"
       id="rect2877"
       width="5.5410094"
       height="2.3209774"
       x="7.229495"
       y="1037.0861"
       ry="0.30864197" />
    <path
       style="fill:#000000"
       d="m 4.0781251,1033.456 c -0.1956419,0 -0.375,0.1793 -0.375,0.375 l 0,17.0625 c 0,0.1956 0.1793581,0.375 0.375,0.375 l 11.8437499,0 c 0.195642,0 0.375,-0.1794 0.375,-0.375 l 0,-17.0625 c 0,-0.1957 -0.179358,-0.375 -0.375,-0.375 l -11.84375,0 z m 2.21875,2.3437 7.4062499,0 c 0.203926,0 0.375,0.1711 0.375,0.375 l 0,12.375 c 0,0.2039 -0.171074,0.375 -0.375,0.375 l -7.40625,0 c -0.2039264,0 -0.34375,-0.1711 -0.34375,-0.375 l 0,-12.375 c 0,-0.2039 0.1398236,-0.375 0.34375,-0.375 z"
       id="rect3117" />
  </g>
  <g
     style="display:inline"
     transform="translate(0,-1032.3622)"
     id="g3164"
     inkscape:groupmode="layer"
     inkscape:label="Server inactiv">
    <rect
       ry="0.3192879"
       y="1040.5677"
       x="7.2294273"
       height="2.3210001"
       width="5.5411453"
       id="rect3166"
       style="fill:#808080" />
    <rect
       ry="0.30864197"
       y="1037.0861"
       x="7.229495"
       height="2.3209774"
       width="5.5410094"
       id="rect3168"
       style="fill:#808080" />
    <path
       id="path3170"
       d="m 4.0781251,1033.456 c -0.1956419,0 -0.375,0.1793 -0.375,0.375 l 0,17.0625 c 0,0.1956 0.1793581,0.375 0.375,0.375 l 11.8437499,0 c 0.195642,0 0.375,-0.1794 0.375,-0.375 l 0,-17.0625 c 0,-0.1957 -0.179358,-0.375 -0.375,-0.375 l -11.84375,0 z m 2.21875,2.3437 7.4062499,0 c 0.203926,0 0.375,0.1711 0.375,0.375 l 0,12.375 c 0,0.2039 -0.171074,0.375 -0.375,0.375 l -7.40625,0 c -0.2039264,0 -0.34375,-0.1711 -0.34375,-0.375 l 0,-12.375 c 0,-0.2039 0.1398236,-0.375 0.34375,-0.375 z"
       style="fill:#808080" />
  </g>
  <g
     inkscape:groupmode="layer"
     id="layer2"
     inkscape:label="Fail"
     style="display:none">
    <g
       id="g3082"
       transform="matrix(0.74003932,0.74003932,-0.74003932,0.74003932,10,-4.8007864)">
      <rect
         ry="0.22226726"
         y="7.886982"
         x="-1.0984726"
         height="4.2260361"
         width="22.196945"
         id="rect3080"
         style="fill:#000000" />
      <rect
         ry="0.22226726"
         y="8.328558"
         x="-0.60593987"
         height="3.3428848"
         width="21.21188"
         id="rect2921"
         style="fill:#ff0000" />
    </g>
  </g>
  <g
     inkscape:groupmode="layer"
     id="layer4"
     inkscape:label="Error"
     style="display:none">
    <path
       sodipodi:type="star"
       style="fill:#000000"
       id="path3012"
       sodipodi:sides="3"
       sodipodi:cx="4.2357841"
       sodipodi:cy="2.0704482"
       sodipodi:r1="9.4515743"
       sodipodi:r2="4.7257872"
       sodipodi:arg1="0.52359878"
       sodipodi:arg2="1.5707963"
       inkscape:flatsided="true"
       inkscape:rounded="1"
       inkscape:randomized="0"
       d="M 12.421088,6.7962354 C 4.235784,20.973597 4.235784,20.973597 -3.9495194,6.7962353 -12.134823,-7.3811262 -12.134823,-7.3811262 4.2357841,-7.3811262 c 16.3706069,10e-8 16.3706069,10e-8 8.1853039,14.1773616 z"
       transform="matrix(-0.56440126,0,0,-0.56440126,12.390682,12.835589)" />
    <path
       sodipodi:type="star"
       style="fill:#ffcc00"
       id="path2977"
       sodipodi:sides="3"
       sodipodi:cx="3.7715886"
       sodipodi:cy="4.5074744"
       sodipodi:r1="8.1109781"
       sodipodi:r2="4.0554891"
       sodipodi:arg1="0.52359878"
       sodipodi:arg2="1.5707963"
       inkscape:flatsided="true"
       inkscape:rounded="1"
       inkscape:randomized="0"
       d="m 10.795902,8.5629635 c -7.0243135,12.1664675 -7.0243135,12.1664675 -14.0486266,0 -7.0243134,-12.1664673 -7.0243134,-12.1664673 7.0243132,-12.1664672 14.0486264,1e-7 14.0486264,1e-7 7.0243134,12.1664672 z"
       transform="matrix(-0.56440126,0,0,-0.56440126,12.128689,13.974601)" />
    <rect
       style="fill:#000000"
       id="rect2979"
       width="1.7407331"
       height="5.802444"
       x="9.1296329"
       y="6.5711117"
       ry="1.6088971"
       rx="0.87036657" />
    <path
       sodipodi:type="arc"
       style="fill:#000000"
       id="path3014"
       sodipodi:cx="9.8641548"
       sodipodi:cy="14.545703"
       sodipodi:rx="0.87036657"
       sodipodi:ry="0.87036657"
       d="m 10.734521,14.545703 a 0.87036657,0.87036657 0 1 1 -1.7407328,0 0.87036657,0.87036657 0 1 1 1.7407328,0 z"
       transform="translate(0.13584518,-0.48531415)" />
  </g>
</svg>
